<?xml version="1.0" encoding="utf-8"?>
<svg version="1.1" id="圖層_1" x="0px" y="0px" viewBox="0 0 42.005 42.192" style="enable-background:new 0 0 174 41.8;" xmlns="http://www.w3.org/2000/svg">
  <style type="text/css">
	.st0{enable-background:new    ;}
	.st1{fill:#C1C1C1;}
	.st2{fill:url(#Path_118_00000099649126873215335810000011956657091547200392_);}
	.st3{fill:#62DB54;}
	.st4{fill:#09ACF5;}
	.st5{fill:none;stroke:#C1C1C1;}
</style>
  <g id="logo" transform="matrix(1, 0, 0, 1, -137.901978, -22.816912)">
    <g class="st0"/>
    <g id="logo-2" transform="translate(138 23.111)">
      <linearGradient id="Path_118_00000150796100189827731260000012309436415640190859_" gradientUnits="userSpaceOnUse" x1="-440.6843" y1="549.6014" x2="-440.6843" y2="548.6014" gradientTransform="matrix(41.791 0 0 -41.779 18437.5332 22961.8105)">
        <stop offset="0" style="stop-color:#09ACF5"/>
        <stop offset="1" style="stop-color:#62DB54"/>
      </linearGradient>
      <path id="Path_118" style="fill:url(#Path_118_00000150796100189827731260000012309436415640190859_);" d="M34.9,41.8h-28 c-3.8-0.1-6.9-3.2-6.9-7V19.6c0-1.9,0.8-3.8,2.3-5.1l14-12.7c2.6-2.3,6.6-2.3,9.2,0l14,12.7c1.5,1.3,2.3,3.1,2.3,5.1v15.2 C41.8,38.6,38.7,41.7,34.9,41.8z M20.9,4.3c-0.7,0-1.3,0.2-1.9,0.6L5,17.6c-0.6,0.5-0.9,1.3-0.8,2.1V35c0,1.5,1.2,2.7,2.7,2.8 h27.8c1.5,0,2.7-1.3,2.7-2.8V19.8c-0.1-0.8-0.4-1.5-0.8-2.1l-14-12.7C22.1,4.5,21.5,4.3,20.9,4.3z"/>
      <path class="st3" d="M16.3,31.8c-0.4,0-0.8-0.1-1.1-0.4l-5.6-5.6c-0.6-0.6-0.6-1.5,0-2.1l5.6-5.6c0.6-0.6,1.5-0.6,2.1,0 c0.6,0.6,0.6,1.5,0,2.1l-4.5,4.5l4.5,4.5c0.6,0.6,0.6,1.5,0,2.1C17.1,31.6,16.7,31.8,16.3,31.8z"/>
      <path class="st4" d="M25.6,31.8c-0.4,0-0.8-0.1-1.1-0.4c-0.6-0.6-0.6-1.5,0-2.1l4.5-4.5l-4.5-4.5c-0.6-0.6-0.6-1.5,0-2.1 c0.6-0.6,1.5-0.6,2.1,0l5.6,5.6c0.3,0.3,0.4,0.7,0.4,1.1s-0.2,0.8-0.4,1.1l-5.6,5.6C26.4,31.6,26,31.8,25.6,31.8z"/>
    </g>
  </g>
</svg>